<?xml version="1.0" standalone="no"?>
<!DOCTYPE svg PUBLIC "-//W3C//DTD SVG 20010904//EN"
 "http://www.w3.org/TR/2001/REC-SVG-20010904/DTD/svg10.dtd">
<svg version="1.0" xmlns="http://www.w3.org/2000/svg"
 width="301.000000pt" height="301.000000pt" viewBox="0 0 301.000000 301.000000"
 preserveAspectRatio="xMidYMid meet">
<metadata>
Created by potrace 1.11, written by Peter Selinger 2001-2013
</metadata>
<g transform="translate(0.000000,301.000000) scale(0.100000,-0.100000)"
fill="#000000" stroke="none">
<path d="M0 1505 l0 -1505 1500 0 1500 0 0 1505 0 1505 -1500 0 -1500 0 0
-1505z m1694 1085 c114 -11 190 -30 298 -76 304 -126 532 -427 577 -760 16
-115 8 -481 -13 -571 -65 -295 -266 -545 -540 -674 -148 -69 -216 -83 -411
-83 -242 0 -296 17 -615 192 -186 102 -275 175 -372 306 -128 172 -189 354
-191 571 -1 133 9 201 45 315 76 238 260 451 488 566 41 21 99 53 129 72 121
77 268 127 414 141 45 5 84 9 87 9 3 1 50 -3 104 -8z"/>
<path d="M1430 2515 c-127 -27 -134 -33 -35 -34 174 -3 343 -47 481 -127 43
-26 117 -66 163 -90 185 -96 314 -220 418 -403 36 -63 42 -70 37 -41 -12 64
-64 193 -104 262 -137 230 -370 391 -634 437 -81 15 -246 12 -326 -4z"/>
<path d="M1278 2409 c-74 -11 -175 -37 -208 -54 -77 -40 -204 -185 -269 -306
-35 -67 -91 -222 -91 -252 0 -7 15 15 33 48 129 239 349 417 598 485 85 23
240 40 314 34 l50 -4 -57 20 c-107 36 -248 47 -370 29z"/>
<path d="M1430 2285 c-92 -19 -152 -41 -251 -91 -208 -107 -364 -292 -441
-524 -43 -130 -43 -202 1 -330 163 -479 650 -732 1134 -589 59 18 78 30 144
92 92 88 143 155 193 256 178 358 109 774 -177 1057 -81 80 -130 105 -261 130
-90 17 -254 17 -342 -1z"/>
<path d="M744 2138 c-113 -120 -180 -235 -225 -390 -30 -105 -37 -306 -15
-419 34 -165 111 -316 227 -442 80 -88 109 -104 62 -34 -51 76 -87 151 -116
242 -40 128 -49 218 -44 460 4 181 8 235 26 304 24 93 82 225 131 296 18 25
30 48 27 51 -2 2 -35 -28 -73 -68z"/>
<path d="M2207 2048 c52 -77 108 -201 135 -298 30 -113 33 -367 4 -470 -31
-114 -76 -217 -127 -295 l-49 -76 41 33 c115 92 239 301 279 469 20 86 20 95
6 164 -39 190 -173 417 -296 505 -29 21 -29 20 7 -32z"/>
<path d="M710 1211 c0 -27 62 -198 92 -251 48 -87 136 -197 204 -254 52 -45
75 -57 144 -75 162 -44 340 -45 490 -2 l65 18 -135 5 c-158 7 -256 29 -378 88
-194 93 -332 221 -438 408 -24 42 -44 71 -44 63z"/>
<path d="M2485 1201 c-9 -29 -100 -167 -149 -224 -59 -71 -187 -170 -281 -218
-44 -23 -113 -62 -153 -86 -153 -92 -311 -136 -490 -137 -100 -1 -109 -2 -83
-13 114 -47 353 -53 506 -13 242 63 459 238 575 460 43 85 96 237 86 248 -2 2
-7 -6 -11 -17z"/>
</g>
</svg>
